<svg xmlns="http://www.w3.org/2000/svg" viewBox="0 0 512 512" fill="none">
  <rect width="512" height="512" rx="128" fill="#0f172a"/>
  <path d="M256 120c-75.1 0-136 60.9-136 136 0 53.8 31.3 100.3 76.7 122.5l-9.8 9.8c-6.2 6.2-6.2 16.4 0 22.6 6.2 6.2 16.4 6.2 22.6 0l16.5-16.5c9.6 2.3 19.7 3.6 30 3.6s20.4-1.3 30-3.6l16.5 16.5c6.2 6.2 16.4 6.2 22.6 0 6.2-6.2 6.2-16.4 0-22.6l-9.8-9.8C360.7 356.3 392 309.8 392 256c0-75.1-60.9-136-136-136zm0 224c-48.6 0-88-39.4-88-88s39.4-88 88-88 88 39.4 88 88-39.4 88-88 88z" fill="#14b8a6"/>
  <circle cx="256" cy="256" r="48" fill="#2dd4bf"/>
</svg>
